<svg xmlns="http://www.w3.org/2000/svg" width="32" height="32" viewBox="0 0 24 24">
  <defs>
    <!-- Radial gradient for inner glow -->
    <radialGradient id="goldGradient" cx="50%" cy="50%" r="50%">
      <stop offset="0%" stop-color="#FFFACD" />
      <stop offset="50%" stop-color="#FFD700" />
      <stop offset="100%" stop-color="#FFA500" />
    </radialGradient>

    <!-- Drop shadow filter -->
    <filter id="dropShadow" x="-20%" y="-20%" width="140%" height="140%">
      <feDropShadow dx="0.5" dy="0.5" stdDeviation="0.5" flood-color="#b8860b" />
    </filter>
  </defs>

  <!-- Apply gradient fill and shadow -->
  <path 
    fill="url(#goldGradient)" 
    filter="url(#dropShadow)" 
    d="m8.85 16.825l3.15-1.9l3.15 1.925l-.825-3.6l2.775-2.4l-3.65-.325l-1.45-3.4l-1.45 3.375l-3.65.325l2.775 2.425zm3.15-.723l-3.63 2.192q-.16.079-.297.064q-.136-.016-.265-.094q-.13-.08-.196-.226t-.012-.319l.966-4.11l-3.195-2.77q-.135-.11-.178-.263t.019-.293t.165-.23q.104-.087.28-.118l4.216-.368l1.644-3.892q.068-.165.196-.238T12 5.364t.288.073t.195.238l1.644 3.892l4.215.368q.177.03.281.119q.104.088.166.229q.061.14.018.293t-.178.263l-3.195 2.77l.966 4.11q.056.171-.011.318t-.197.226q-.128.08-.265.095q-.136.015-.296-.064zm0-3.852"/>
</svg>